<mxfile host="app.diagrams.net" agent="Mozilla/5.0 (Windows NT 10.0; Win64; x64) AppleWebKit/537.36 (KHTML, like Gecko) Chrome/136.0.0.0 Safari/537.36" version="27.0.3">
  <diagram id="amRh1DqfK2RVm6x1WtD-" name="Page-1">
    <mxGraphModel dx="541" dy="760" grid="1" gridSize="10" guides="1" tooltips="1" connect="1" arrows="1" fold="1" page="1" pageScale="1" pageWidth="2339" pageHeight="3300" math="0" shadow="0">
      <root>
        <mxCell id="0" />
        <mxCell id="1" parent="0" />
        <mxCell id="3PxLHUjRiN6CBsCaSKGt-7" value="" style="rounded=1;whiteSpace=wrap;html=1;fillColor=#f5f5f5;fontColor=#333333;strokeColor=#666666;shadow=1;" vertex="1" parent="1">
          <mxGeometry x="780" y="470" width="110" height="80" as="geometry" />
        </mxCell>
        <mxCell id="3PxLHUjRiN6CBsCaSKGt-1" value="39" style="whiteSpace=wrap;html=1;aspect=fixed;fillColor=#a20025;fontColor=#ffffff;strokeColor=#6F0000;shadow=1;" vertex="1" parent="1">
          <mxGeometry x="790" y="480" width="30" height="30" as="geometry" />
        </mxCell>
        <mxCell id="3PxLHUjRiN6CBsCaSKGt-2" value="" style="whiteSpace=wrap;html=1;aspect=fixed;shadow=1;" vertex="1" parent="1">
          <mxGeometry x="820" y="480" width="30" height="30" as="geometry" />
        </mxCell>
        <mxCell id="3PxLHUjRiN6CBsCaSKGt-3" value="" style="whiteSpace=wrap;html=1;aspect=fixed;shadow=1;" vertex="1" parent="1">
          <mxGeometry x="850" y="480" width="30" height="30" as="geometry" />
        </mxCell>
        <mxCell id="3PxLHUjRiN6CBsCaSKGt-4" value="data" style="whiteSpace=wrap;html=1;aspect=fixed;fillColor=#60a917;fontColor=#ffffff;strokeColor=#2D7600;shadow=1;" vertex="1" parent="1">
          <mxGeometry x="790" y="510" width="30" height="30" as="geometry" />
        </mxCell>
        <mxCell id="3PxLHUjRiN6CBsCaSKGt-5" value="" style="whiteSpace=wrap;html=1;aspect=fixed;shadow=1;" vertex="1" parent="1">
          <mxGeometry x="820" y="510" width="30" height="30" as="geometry" />
        </mxCell>
        <mxCell id="3PxLHUjRiN6CBsCaSKGt-6" value="" style="whiteSpace=wrap;html=1;aspect=fixed;shadow=1;" vertex="1" parent="1">
          <mxGeometry x="850" y="510" width="30" height="30" as="geometry" />
        </mxCell>
        <mxCell id="3PxLHUjRiN6CBsCaSKGt-8" value="" style="rounded=1;whiteSpace=wrap;html=1;fillColor=#f5f5f5;fontColor=#333333;strokeColor=#666666;shadow=1;strokeWidth=1;" vertex="1" parent="1">
          <mxGeometry x="625" y="600" width="110" height="80" as="geometry" />
        </mxCell>
        <mxCell id="3PxLHUjRiN6CBsCaSKGt-9" value="8" style="whiteSpace=wrap;html=1;aspect=fixed;fillColor=#a20025;fontColor=#ffffff;strokeColor=#6F0000;shadow=1;" vertex="1" parent="1">
          <mxGeometry x="635" y="610" width="30" height="30" as="geometry" />
        </mxCell>
        <mxCell id="3PxLHUjRiN6CBsCaSKGt-10" value="12" style="whiteSpace=wrap;html=1;aspect=fixed;fillColor=#a20025;fontColor=#ffffff;strokeColor=#6F0000;shadow=1;" vertex="1" parent="1">
          <mxGeometry x="665" y="610" width="30" height="30" as="geometry" />
        </mxCell>
        <mxCell id="3PxLHUjRiN6CBsCaSKGt-11" value="22" style="whiteSpace=wrap;html=1;aspect=fixed;shadow=1;fillColor=#a20025;fontColor=#ffffff;strokeColor=#6F0000;" vertex="1" parent="1">
          <mxGeometry x="695" y="610" width="30" height="30" as="geometry" />
        </mxCell>
        <mxCell id="3PxLHUjRiN6CBsCaSKGt-12" value="data" style="whiteSpace=wrap;html=1;aspect=fixed;fillColor=#60a917;fontColor=#ffffff;strokeColor=#2D7600;shadow=1;" vertex="1" parent="1">
          <mxGeometry x="635" y="640" width="30" height="30" as="geometry" />
        </mxCell>
        <mxCell id="3PxLHUjRiN6CBsCaSKGt-13" value="data" style="whiteSpace=wrap;html=1;aspect=fixed;fillColor=#60a917;fontColor=#ffffff;strokeColor=#2D7600;shadow=1;strokeWidth=1;" vertex="1" parent="1">
          <mxGeometry x="665" y="640" width="30" height="30" as="geometry" />
        </mxCell>
        <mxCell id="3PxLHUjRiN6CBsCaSKGt-16" value="" style="rounded=1;whiteSpace=wrap;html=1;fillColor=#f5f5f5;fontColor=#333333;strokeColor=#666666;shadow=1;" vertex="1" parent="1">
          <mxGeometry x="370" y="750" width="110" height="80" as="geometry" />
        </mxCell>
        <mxCell id="3PxLHUjRiN6CBsCaSKGt-17" value="5" style="whiteSpace=wrap;html=1;aspect=fixed;fillColor=#a20025;fontColor=#ffffff;strokeColor=#6F0000;shadow=1;" vertex="1" parent="1">
          <mxGeometry x="380" y="760" width="30" height="30" as="geometry" />
        </mxCell>
        <mxCell id="3PxLHUjRiN6CBsCaSKGt-18" value="" style="whiteSpace=wrap;html=1;aspect=fixed;shadow=1;" vertex="1" parent="1">
          <mxGeometry x="410" y="760" width="30" height="30" as="geometry" />
        </mxCell>
        <mxCell id="3PxLHUjRiN6CBsCaSKGt-19" value="" style="whiteSpace=wrap;html=1;aspect=fixed;shadow=1;" vertex="1" parent="1">
          <mxGeometry x="440" y="760" width="30" height="30" as="geometry" />
        </mxCell>
        <mxCell id="3PxLHUjRiN6CBsCaSKGt-20" value="data" style="whiteSpace=wrap;html=1;aspect=fixed;fillColor=#60a917;fontColor=#ffffff;strokeColor=#2D7600;shadow=1;" vertex="1" parent="1">
          <mxGeometry x="380" y="790" width="30" height="30" as="geometry" />
        </mxCell>
        <mxCell id="3PxLHUjRiN6CBsCaSKGt-21" value="" style="whiteSpace=wrap;html=1;aspect=fixed;shadow=1;" vertex="1" parent="1">
          <mxGeometry x="410" y="790" width="30" height="30" as="geometry" />
        </mxCell>
        <mxCell id="3PxLHUjRiN6CBsCaSKGt-22" value="" style="whiteSpace=wrap;html=1;aspect=fixed;shadow=1;" vertex="1" parent="1">
          <mxGeometry x="440" y="790" width="30" height="30" as="geometry" />
        </mxCell>
        <mxCell id="3PxLHUjRiN6CBsCaSKGt-24" value="" style="rounded=1;whiteSpace=wrap;html=1;fillColor=#f5f5f5;fontColor=#333333;strokeColor=#666666;shadow=1;" vertex="1" parent="1">
          <mxGeometry x="610" y="750" width="110" height="80" as="geometry" />
        </mxCell>
        <mxCell id="3PxLHUjRiN6CBsCaSKGt-25" value="13" style="whiteSpace=wrap;html=1;aspect=fixed;fillColor=#a20025;fontColor=#ffffff;strokeColor=#6F0000;shadow=1;" vertex="1" parent="1">
          <mxGeometry x="620" y="760" width="30" height="30" as="geometry" />
        </mxCell>
        <mxCell id="3PxLHUjRiN6CBsCaSKGt-26" value="15" style="whiteSpace=wrap;html=1;aspect=fixed;fillColor=#a20025;fontColor=#ffffff;strokeColor=#6F0000;shadow=1;" vertex="1" parent="1">
          <mxGeometry x="650" y="760" width="30" height="30" as="geometry" />
        </mxCell>
        <mxCell id="3PxLHUjRiN6CBsCaSKGt-27" value="" style="whiteSpace=wrap;html=1;aspect=fixed;shadow=1;" vertex="1" parent="1">
          <mxGeometry x="680" y="760" width="30" height="30" as="geometry" />
        </mxCell>
        <mxCell id="3PxLHUjRiN6CBsCaSKGt-28" value="data" style="whiteSpace=wrap;html=1;aspect=fixed;fillColor=#60a917;fontColor=#ffffff;strokeColor=#2D7600;shadow=1;" vertex="1" parent="1">
          <mxGeometry x="620" y="790" width="30" height="30" as="geometry" />
        </mxCell>
        <mxCell id="3PxLHUjRiN6CBsCaSKGt-29" value="data" style="whiteSpace=wrap;html=1;aspect=fixed;fillColor=#60a917;fontColor=#ffffff;strokeColor=#2D7600;shadow=1;" vertex="1" parent="1">
          <mxGeometry x="650" y="790" width="30" height="30" as="geometry" />
        </mxCell>
        <mxCell id="3PxLHUjRiN6CBsCaSKGt-30" value="" style="whiteSpace=wrap;html=1;aspect=fixed;shadow=1;" vertex="1" parent="1">
          <mxGeometry x="680" y="790" width="30" height="30" as="geometry" />
        </mxCell>
        <mxCell id="3PxLHUjRiN6CBsCaSKGt-41" value="" style="rounded=1;whiteSpace=wrap;html=1;fillColor=#f5f5f5;fontColor=#333333;strokeColor=#666666;shadow=1;" vertex="1" parent="1">
          <mxGeometry x="730" y="750" width="110" height="80" as="geometry" />
        </mxCell>
        <mxCell id="3PxLHUjRiN6CBsCaSKGt-42" value="25" style="whiteSpace=wrap;html=1;aspect=fixed;fillColor=#a20025;fontColor=#ffffff;strokeColor=#6F0000;shadow=1;" vertex="1" parent="1">
          <mxGeometry x="740" y="760" width="30" height="30" as="geometry" />
        </mxCell>
        <mxCell id="3PxLHUjRiN6CBsCaSKGt-43" value="29" style="whiteSpace=wrap;html=1;aspect=fixed;fillColor=#a20025;fontColor=#ffffff;strokeColor=#6F0000;shadow=1;" vertex="1" parent="1">
          <mxGeometry x="770" y="760" width="30" height="30" as="geometry" />
        </mxCell>
        <mxCell id="3PxLHUjRiN6CBsCaSKGt-44" value="35" style="whiteSpace=wrap;html=1;aspect=fixed;fillColor=#a20025;fontColor=#ffffff;strokeColor=#6F0000;shadow=1;" vertex="1" parent="1">
          <mxGeometry x="800" y="760" width="30" height="30" as="geometry" />
        </mxCell>
        <mxCell id="3PxLHUjRiN6CBsCaSKGt-45" value="data" style="whiteSpace=wrap;html=1;aspect=fixed;fillColor=#60a917;fontColor=#ffffff;strokeColor=#2D7600;shadow=1;" vertex="1" parent="1">
          <mxGeometry x="740" y="790" width="30" height="30" as="geometry" />
        </mxCell>
        <mxCell id="3PxLHUjRiN6CBsCaSKGt-46" value="data" style="whiteSpace=wrap;html=1;aspect=fixed;fillColor=#60a917;fontColor=#ffffff;strokeColor=#2D7600;shadow=1;" vertex="1" parent="1">
          <mxGeometry x="770" y="790" width="30" height="30" as="geometry" />
        </mxCell>
        <mxCell id="3PxLHUjRiN6CBsCaSKGt-47" value="data" style="whiteSpace=wrap;html=1;aspect=fixed;fillColor=#60a917;fontColor=#ffffff;strokeColor=#2D7600;shadow=1;" vertex="1" parent="1">
          <mxGeometry x="800" y="790" width="30" height="30" as="geometry" />
        </mxCell>
        <mxCell id="3PxLHUjRiN6CBsCaSKGt-56" value="" style="rounded=1;whiteSpace=wrap;html=1;fillColor=#f5f5f5;fontColor=#333333;strokeColor=#666666;shadow=1;" vertex="1" parent="1">
          <mxGeometry x="970" y="600" width="110" height="80" as="geometry" />
        </mxCell>
        <mxCell id="3PxLHUjRiN6CBsCaSKGt-57" value="53" style="whiteSpace=wrap;html=1;aspect=fixed;fillColor=#a20025;fontColor=#ffffff;strokeColor=#6F0000;shadow=1;" vertex="1" parent="1">
          <mxGeometry x="980" y="610" width="30" height="30" as="geometry" />
        </mxCell>
        <mxCell id="3PxLHUjRiN6CBsCaSKGt-58" value="" style="whiteSpace=wrap;html=1;aspect=fixed;shadow=1;" vertex="1" parent="1">
          <mxGeometry x="1010" y="610" width="30" height="30" as="geometry" />
        </mxCell>
        <mxCell id="3PxLHUjRiN6CBsCaSKGt-59" value="" style="whiteSpace=wrap;html=1;aspect=fixed;shadow=1;" vertex="1" parent="1">
          <mxGeometry x="1040" y="610" width="30" height="30" as="geometry" />
        </mxCell>
        <mxCell id="3PxLHUjRiN6CBsCaSKGt-60" value="data" style="whiteSpace=wrap;html=1;aspect=fixed;fillColor=#60a917;fontColor=#ffffff;strokeColor=#2D7600;shadow=1;" vertex="1" parent="1">
          <mxGeometry x="980" y="640" width="30" height="30" as="geometry" />
        </mxCell>
        <mxCell id="3PxLHUjRiN6CBsCaSKGt-61" value="" style="whiteSpace=wrap;html=1;aspect=fixed;shadow=1;" vertex="1" parent="1">
          <mxGeometry x="1010" y="640" width="30" height="30" as="geometry" />
        </mxCell>
        <mxCell id="3PxLHUjRiN6CBsCaSKGt-62" value="" style="whiteSpace=wrap;html=1;aspect=fixed;shadow=1;" vertex="1" parent="1">
          <mxGeometry x="1040" y="640" width="30" height="30" as="geometry" />
        </mxCell>
        <mxCell id="3PxLHUjRiN6CBsCaSKGt-64" value="" style="rounded=1;whiteSpace=wrap;html=1;fillColor=#f5f5f5;fontColor=#333333;strokeColor=#666666;shadow=1;" vertex="1" parent="1">
          <mxGeometry x="850" y="750" width="110" height="80" as="geometry" />
        </mxCell>
        <mxCell id="3PxLHUjRiN6CBsCaSKGt-65" value="41" style="whiteSpace=wrap;html=1;aspect=fixed;fillColor=#a20025;fontColor=#ffffff;strokeColor=#6F0000;shadow=1;" vertex="1" parent="1">
          <mxGeometry x="860" y="760" width="30" height="30" as="geometry" />
        </mxCell>
        <mxCell id="3PxLHUjRiN6CBsCaSKGt-66" value="50" style="whiteSpace=wrap;html=1;aspect=fixed;fillColor=#a20025;fontColor=#ffffff;strokeColor=#6F0000;shadow=1;" vertex="1" parent="1">
          <mxGeometry x="890" y="760" width="30" height="30" as="geometry" />
        </mxCell>
        <mxCell id="3PxLHUjRiN6CBsCaSKGt-67" value="" style="whiteSpace=wrap;html=1;aspect=fixed;shadow=1;" vertex="1" parent="1">
          <mxGeometry x="920" y="760" width="30" height="30" as="geometry" />
        </mxCell>
        <mxCell id="3PxLHUjRiN6CBsCaSKGt-68" value="data" style="whiteSpace=wrap;html=1;aspect=fixed;fillColor=#60a917;fontColor=#ffffff;strokeColor=#2D7600;shadow=1;" vertex="1" parent="1">
          <mxGeometry x="860" y="790" width="30" height="30" as="geometry" />
        </mxCell>
        <mxCell id="3PxLHUjRiN6CBsCaSKGt-69" value="data" style="whiteSpace=wrap;html=1;aspect=fixed;fillColor=#60a917;fontColor=#ffffff;strokeColor=#2D7600;shadow=1;" vertex="1" parent="1">
          <mxGeometry x="890" y="790" width="30" height="30" as="geometry" />
        </mxCell>
        <mxCell id="3PxLHUjRiN6CBsCaSKGt-70" value="" style="whiteSpace=wrap;html=1;aspect=fixed;shadow=1;" vertex="1" parent="1">
          <mxGeometry x="920" y="790" width="30" height="30" as="geometry" />
        </mxCell>
        <mxCell id="3PxLHUjRiN6CBsCaSKGt-79" value="" style="rounded=1;whiteSpace=wrap;html=1;fillColor=#f5f5f5;fontColor=#333333;strokeColor=#666666;shadow=1;" vertex="1" parent="1">
          <mxGeometry x="1030" y="750" width="110" height="80" as="geometry" />
        </mxCell>
        <mxCell id="3PxLHUjRiN6CBsCaSKGt-80" value="97" style="whiteSpace=wrap;html=1;aspect=fixed;fillColor=#a20025;fontColor=#ffffff;strokeColor=#6F0000;shadow=1;" vertex="1" parent="1">
          <mxGeometry x="1040" y="760" width="30" height="30" as="geometry" />
        </mxCell>
        <mxCell id="3PxLHUjRiN6CBsCaSKGt-81" value="" style="whiteSpace=wrap;html=1;aspect=fixed;shadow=1;" vertex="1" parent="1">
          <mxGeometry x="1070" y="760" width="30" height="30" as="geometry" />
        </mxCell>
        <mxCell id="3PxLHUjRiN6CBsCaSKGt-82" value="" style="whiteSpace=wrap;html=1;aspect=fixed;shadow=1;" vertex="1" parent="1">
          <mxGeometry x="1100" y="760" width="30" height="30" as="geometry" />
        </mxCell>
        <mxCell id="3PxLHUjRiN6CBsCaSKGt-83" value="data" style="whiteSpace=wrap;html=1;aspect=fixed;fillColor=#60a917;fontColor=#ffffff;strokeColor=#2D7600;shadow=1;" vertex="1" parent="1">
          <mxGeometry x="1040" y="790" width="30" height="30" as="geometry" />
        </mxCell>
        <mxCell id="3PxLHUjRiN6CBsCaSKGt-84" value="" style="whiteSpace=wrap;html=1;aspect=fixed;shadow=1;" vertex="1" parent="1">
          <mxGeometry x="1070" y="790" width="30" height="30" as="geometry" />
        </mxCell>
        <mxCell id="3PxLHUjRiN6CBsCaSKGt-85" value="" style="whiteSpace=wrap;html=1;aspect=fixed;shadow=1;" vertex="1" parent="1">
          <mxGeometry x="1100" y="790" width="30" height="30" as="geometry" />
        </mxCell>
        <mxCell id="3PxLHUjRiN6CBsCaSKGt-23" style="rounded=0;orthogonalLoop=1;jettySize=auto;html=1;exitX=0;exitY=1;exitDx=0;exitDy=0;entryX=0.5;entryY=0;entryDx=0;entryDy=0;shadow=1;" edge="1" parent="1" source="3PxLHUjRiN6CBsCaSKGt-12" target="3PxLHUjRiN6CBsCaSKGt-16">
          <mxGeometry relative="1" as="geometry" />
        </mxCell>
        <mxCell id="3PxLHUjRiN6CBsCaSKGt-31" style="rounded=0;orthogonalLoop=1;jettySize=auto;html=1;shadow=1;exitX=0;exitY=1;exitDx=0;exitDy=0;entryX=0.5;entryY=0;entryDx=0;entryDy=0;" edge="1" parent="1" source="3PxLHUjRiN6CBsCaSKGt-13" target="3PxLHUjRiN6CBsCaSKGt-87">
          <mxGeometry relative="1" as="geometry">
            <mxPoint x="660" y="700" as="sourcePoint" />
          </mxGeometry>
        </mxCell>
        <mxCell id="3PxLHUjRiN6CBsCaSKGt-48" style="rounded=0;orthogonalLoop=1;jettySize=auto;html=1;exitX=1;exitY=1;exitDx=0;exitDy=0;entryX=0.5;entryY=0;entryDx=0;entryDy=0;shadow=1;" edge="1" parent="1" source="3PxLHUjRiN6CBsCaSKGt-14" target="3PxLHUjRiN6CBsCaSKGt-41">
          <mxGeometry relative="1" as="geometry" />
        </mxCell>
        <mxCell id="3PxLHUjRiN6CBsCaSKGt-71" style="rounded=0;orthogonalLoop=1;jettySize=auto;html=1;exitX=0;exitY=1;exitDx=0;exitDy=0;entryX=0.5;entryY=0;entryDx=0;entryDy=0;shadow=1;" edge="1" parent="1" source="3PxLHUjRiN6CBsCaSKGt-60" target="3PxLHUjRiN6CBsCaSKGt-64">
          <mxGeometry relative="1" as="geometry" />
        </mxCell>
        <mxCell id="3PxLHUjRiN6CBsCaSKGt-86" style="rounded=0;orthogonalLoop=1;jettySize=auto;html=1;exitX=0;exitY=1;exitDx=0;exitDy=0;entryX=0.5;entryY=0;entryDx=0;entryDy=0;shadow=1;" edge="1" parent="1" source="3PxLHUjRiN6CBsCaSKGt-61" target="3PxLHUjRiN6CBsCaSKGt-79">
          <mxGeometry relative="1" as="geometry" />
        </mxCell>
        <mxCell id="3PxLHUjRiN6CBsCaSKGt-15" style="rounded=0;orthogonalLoop=1;jettySize=auto;html=1;exitX=0;exitY=1;exitDx=0;exitDy=0;entryX=0.5;entryY=0;entryDx=0;entryDy=0;shadow=1;" edge="1" parent="1" source="3PxLHUjRiN6CBsCaSKGt-4" target="3PxLHUjRiN6CBsCaSKGt-8">
          <mxGeometry relative="1" as="geometry" />
        </mxCell>
        <mxCell id="3PxLHUjRiN6CBsCaSKGt-63" style="rounded=0;orthogonalLoop=1;jettySize=auto;html=1;exitX=0;exitY=1;exitDx=0;exitDy=0;shadow=1;" edge="1" parent="1" source="3PxLHUjRiN6CBsCaSKGt-5" target="3PxLHUjRiN6CBsCaSKGt-56">
          <mxGeometry relative="1" as="geometry" />
        </mxCell>
        <mxCell id="3PxLHUjRiN6CBsCaSKGt-94" style="rounded=0;orthogonalLoop=1;jettySize=auto;html=1;exitX=0;exitY=1;exitDx=0;exitDy=0;" edge="1" parent="1" source="3PxLHUjRiN6CBsCaSKGt-14" target="3PxLHUjRiN6CBsCaSKGt-24">
          <mxGeometry relative="1" as="geometry" />
        </mxCell>
        <mxCell id="3PxLHUjRiN6CBsCaSKGt-14" value="data" style="whiteSpace=wrap;html=1;aspect=fixed;shadow=1;fillColor=#60a917;fontColor=#ffffff;strokeColor=#2D7600;" vertex="1" parent="1">
          <mxGeometry x="695" y="640" width="30" height="30" as="geometry" />
        </mxCell>
        <mxCell id="3PxLHUjRiN6CBsCaSKGt-87" value="" style="rounded=1;whiteSpace=wrap;html=1;fillColor=#f5f5f5;fontColor=#333333;strokeColor=#666666;shadow=1;" vertex="1" parent="1">
          <mxGeometry x="490" y="750" width="110" height="80" as="geometry" />
        </mxCell>
        <mxCell id="3PxLHUjRiN6CBsCaSKGt-88" value="9" style="whiteSpace=wrap;html=1;aspect=fixed;fillColor=#a20025;fontColor=#ffffff;strokeColor=#6F0000;shadow=1;" vertex="1" parent="1">
          <mxGeometry x="500" y="760" width="30" height="30" as="geometry" />
        </mxCell>
        <mxCell id="3PxLHUjRiN6CBsCaSKGt-89" value="10" style="whiteSpace=wrap;html=1;aspect=fixed;shadow=1;fillColor=#a20025;fontColor=#ffffff;strokeColor=#6F0000;" vertex="1" parent="1">
          <mxGeometry x="530" y="760" width="30" height="30" as="geometry" />
        </mxCell>
        <mxCell id="3PxLHUjRiN6CBsCaSKGt-90" value="" style="whiteSpace=wrap;html=1;aspect=fixed;shadow=1;" vertex="1" parent="1">
          <mxGeometry x="560" y="760" width="30" height="30" as="geometry" />
        </mxCell>
        <mxCell id="3PxLHUjRiN6CBsCaSKGt-91" value="data" style="whiteSpace=wrap;html=1;aspect=fixed;fillColor=#60a917;fontColor=#ffffff;strokeColor=#2D7600;shadow=1;" vertex="1" parent="1">
          <mxGeometry x="500" y="790" width="30" height="30" as="geometry" />
        </mxCell>
        <mxCell id="3PxLHUjRiN6CBsCaSKGt-92" value="data" style="whiteSpace=wrap;html=1;aspect=fixed;shadow=1;fillColor=#60a917;fontColor=#ffffff;strokeColor=#2D7600;" vertex="1" parent="1">
          <mxGeometry x="530" y="790" width="30" height="30" as="geometry" />
        </mxCell>
        <mxCell id="3PxLHUjRiN6CBsCaSKGt-93" value="" style="whiteSpace=wrap;html=1;aspect=fixed;shadow=1;" vertex="1" parent="1">
          <mxGeometry x="560" y="790" width="30" height="30" as="geometry" />
        </mxCell>
      </root>
    </mxGraphModel>
  </diagram>
</mxfile>
